<svg xmlns:mydata="http://www.w3.org/2000/svg" mydata:contrastcolor="47141e" mydata:template="Contrast" mydata:presentation="2.5" mydata:layouttype="undefined" mydata:specialfontid="undefined" mydata:id1="088" mydata:id2="235" mydata:companyname="offerdz" mydata:companytagline="" version="1.1" xmlns="http://www.w3.org/2000/svg" xmlns:xlink="http://www.w3.org/1999/xlink" viewBox="0 0 550 470" style="background-color: rgb(71, 20, 30); background-image: radial-gradient(circle closest-side at center center, rgba(255, 255, 255, 0.07) 0%, rgba(255, 255, 255, 0) 100%);"><defs style="animation-play-state: paused;"><g fill-rule="nonzero" font-family="none" font-weight="none" font-size="none" text-anchor="none" style="mix-blend-mode: normal; animation-play-state: paused;" id="interstellar-group"><g data-paper-data="{&quot;isGlobalGroup&quot;:true,&quot;bounds&quot;:{&quot;x&quot;:65,&quot;y&quot;:199.4526392489724,&quot;width&quot;:420,&quot;height&quot;:71.09472150205522}}" style="animation-play-state: paused;"><g data-paper-data="{&quot;isPrimaryText&quot;:true}" style="animation-play-state: paused;"><path d="M193.7532,219.65617v-15.15322h-10.48336c-9.05381,0 -18.29823,6.67123 -21.53854,15.53443l-8.95851,24.01642c-1.23894,3.24031 -4.76516,5.62289 -6.48062,5.62289h-9.62563v15.15322h9.62563c8.48199,0 17.3452,-6.67123 20.58551,-15.53443l1.90607,-4.95577h14.00958v-15.05792h-8.38669l1.42955,-4.00274c1.14364,-3.0497 5.05107,-5.62289 7.43366,-5.62289z" data-paper-data="{&quot;glyphName&quot;:&quot;f&quot;,&quot;glyphIndex&quot;:1,&quot;word&quot;:1}" style="animation-play-state: paused;"/><path d="M255.60502,219.65617v-15.15322h-10.48336c-9.05381,0 -18.29823,6.67123 -21.53854,15.53443l-8.95851,24.01642c-1.23894,3.24031 -4.76516,5.62289 -6.48062,5.62289h-9.62563v15.15322h9.62563c8.48199,0 17.3452,-6.67123 20.58551,-15.53443l1.90607,-4.95577h14.00958v-15.05792h-8.38669l1.42955,-4.00274c1.14364,-3.0497 5.05107,-5.62289 7.43366,-5.62289z" data-paper-data="{&quot;glyphName&quot;:&quot;f&quot;,&quot;glyphIndex&quot;:2,&quot;word&quot;:1}" style="animation-play-state: paused;"/><path d="M255.31911,234.52348c0,16.39216 12.96124,30.30644 29.54401,30.30644h28.49568v-15.15322h-28.49568c-8.19608,0 -14.39079,-7.14775 -14.39079,-15.15322c0,-8.10078 6.19471,-15.24852 14.39079,-15.24852h12.96124c2.9544,0 2.47789,3.33561 2.47789,5.24168c0,1.33425 -1.14364,2.47789 -2.47789,2.47789h-20.01369v15.15322h20.01369c9.62563,0 17.5358,-7.91017 17.5358,-17.63111v-2.76379c0,-9.62563 -7.91017,-17.5358 -17.5358,-17.5358h-12.96124c-16.58277,0 -29.54401,13.91428 -29.54401,30.30644z" data-paper-data="{&quot;glyphName&quot;:&quot;e&quot;,&quot;glyphIndex&quot;:3,&quot;word&quot;:1}" style="animation-play-state: paused;"/><path d="M347.19147,224.99316c1.23894,-3.33561 2.66849,-5.52759 6.38532,-5.52759h9.53033v-14.96261h-9.53033c-8.95851,0 -17.5358,7.14775 -20.3949,15.43913l-15.62974,44.88784h15.82034z" data-paper-data="{&quot;glyphName&quot;:&quot;r&quot;,&quot;glyphIndex&quot;:4,&quot;word&quot;:1}" style="animation-play-state: paused;"/><path d="M367.87228,204.50295v60.32697h28.68628c15.82034,0 28.68628,-13.53306 28.68628,-30.11583c0,-16.67807 -12.86594,-30.21114 -28.68628,-30.21114zM383.0255,249.6767v-30.02053h13.53306c7.52896,0 13.62837,6.76653 13.62837,15.05792c0,8.29138 -6.09941,14.96261 -13.62837,14.96261z" data-paper-data="{&quot;glyphName&quot;:&quot;d&quot;,&quot;glyphIndex&quot;:5,&quot;word&quot;:1}" style="animation-play-state: paused;"/><path d="M485,215.46283c0,-7.91017 -7.52896,-10.95988 -14.39079,-10.95988h-40.12268v15.15322h32.87963l-28.01916,24.20703c-2.9544,2.57319 -5.33698,6.00411 -5.33698,10.00684c0,7.91017 7.62426,10.95988 14.4861,10.95988h40.02737v-15.15322h-32.87963l28.01916,-24.11173c2.9544,-2.57319 5.33698,-6.00411 5.33698,-10.10215z" data-paper-data="{&quot;glyphName&quot;:&quot;z&quot;,&quot;glyphIndex&quot;:6,&quot;lastGlyphOfWord&quot;:true,&quot;word&quot;:1}" style="animation-play-state: paused;"/><g data-paper-data="{&quot;fillRule&quot;:&quot;nonzero&quot;,&quot;fillRuleOriginal&quot;:&quot;nonzero&quot;,&quot;isIcon&quot;:true,&quot;iconStyle&quot;:&quot;icon-in-text&quot;,&quot;selectedEffects&quot;:{&quot;container&quot;:&quot;circle_simple_filled&quot;,&quot;transformation&quot;:&quot;&quot;,&quot;pattern&quot;:&quot;&quot;},&quot;bounds&quot;:{&quot;x&quot;:65,&quot;y&quot;:199.4526392489724,&quot;width&quot;:71.09472150205522,&quot;height&quot;:71.09472150205522},&quot;widthRatioIconToContainer&quot;:0.6600830452953367,&quot;heightRatioIconToContainer&quot;:0.8954614955556892,&quot;relativeBoundsIconToContainer&quot;:{&quot;top&quot;:1.460283625105826e-16,&quot;left&quot;:1.9470448334744346e-16},&quot;iconType&quot;:&quot;initial&quot;,&quot;initialText&quot;:&quot;O&quot;,&quot;rawInitialId&quot;:572,&quot;blockLetter&quot;:&quot;O&quot;,&quot;line&quot;:1,&quot;iconInPrimaryText&quot;:true,&quot;suitableAsStandaloneIcon&quot;:true}" style="animation-play-state: paused;"><path d="M65,235c0,-19.63226 15.9151,-35.54736 35.54736,-35.54736c19.63226,0 35.54736,15.9151 35.54736,35.54736c0,19.63226 -15.9151,35.54736 -35.54736,35.54736c-19.63226,0 -35.54736,-15.9151 -35.54736,-35.54736zM100.54736,203.16871c-13.00536,0 -23.46421,10.45885 -23.46421,23.46421v16.73417c0,13.00536 10.45885,23.46421 23.46421,23.46421c13.00536,0 23.46421,-10.45885 23.46421,-23.46421v-16.73417c0,-13.00536 -10.45885,-23.46421 -23.46421,-23.46421zM100.54736,216.99258c5.36585,0 9.64033,4.27449 9.64033,9.64033v16.73417c0,5.36585 -4.27449,9.64033 -9.64033,9.64033c-5.36585,0 -9.64033,-4.27449 -9.64033,-9.64033v-16.73417c0,-5.36585 4.27449,-9.64033 9.64033,-9.64033zM100.54736,219.81192c-3.81976,0 -6.82099,3.09218 -6.82099,6.82099v16.64322c0,3.81976 3.00124,6.91194 6.82099,6.91194c3.81976,0 6.82099,-3.09218 6.82099,-6.82099v-16.73417c0,-3.72881 -3.00124,-6.82099 -6.82099,-6.82099z" data-paper-data="{&quot;isPathIcon&quot;:true}" style="animation-play-state: paused;"/></g></g></g></g></defs><style style="animation-play-state: paused;">
            .strokeItem{
                fill: none;
                stroke-width: 2;
                stroke-linejoin: round;
                stroke-dasharray: 70 90;
                stroke-dashoffset: 0;
                animation: stroke 6000ms infinite linear;
            }

            @keyframes stroke {
                100% {
                    stroke-dashoffset: -160;
                }
            }
        </style><defs style="animation-play-state: paused;"><linearGradient x1="65" y1="235" x2="485" y2="235" gradientUnits="userSpaceOnUse" id="color-11601586684" style="animation-play-state: paused;"><stop offset="0" stop-color="#ed4264" style="animation-play-state: paused;"/><stop offset="1" stop-color="#ffedbc" style="animation-play-state: paused;"/></linearGradient></defs><use href="#interstellar-group" class="strokeItem" style="stroke: rgb(237, 66, 100); animation-delay: 0ms; animation-play-state: paused;"/><use href="#interstellar-group" class="strokeItem" style="stroke: rgb(255, 237, 188); animation-delay: -3000ms; animation-play-state: paused;"/></svg>